<svg width="50" height="44" viewBox="0 0 50 44" fill="none" xmlns="http://www.w3.org/2000/svg">
<path d="M49.9298 24.8307L49.9296 24.8301L40.4894 1.12651C40.4417 1.00674 40.371 0.897529 40.2811 0.805112C40.1913 0.712695 40.0841 0.638882 39.9657 0.587888C39.8473 0.536893 39.72 0.509717 39.5912 0.507909C39.4623 0.506101 39.3343 0.529699 39.2145 0.577353L39.2134 0.577844L0.915752 15.8276C0.759584 15.8951 0.62411 16.0028 0.523147 16.1397C0.366848 16.2209 0.235585 16.3431 0.143426 16.4932C0.0512677 16.6432 0.00168746 16.8156 0 16.9917L0 42.511C0 42.7713 0.103409 43.021 0.287479 43.2051C0.471548 43.3891 0.7212 43.4925 0.981513 43.4925H42.2051C42.4654 43.4925 42.715 43.3891 42.8991 43.2051C43.0832 43.021 43.1866 42.7713 43.1866 42.511V28.5735L49.3819 26.106C49.5016 26.0583 49.6108 25.9874 49.7031 25.8974C49.7954 25.8075 49.8691 25.7003 49.92 25.5818C49.9709 25.4634 49.9979 25.3361 49.9996 25.2072C50.0013 25.0783 49.9776 24.9504 49.9298 24.8307ZM41.2236 41.5295H1.96303V17.9732H41.2236V41.5295ZM16.3765 16.0151L32.811 9.46643C33.5369 10.2294 34.4096 10.8376 35.3766 11.2546C36.3436 11.6716 37.3849 11.8886 38.438 11.8927L40.0771 16.0151H16.3765ZM43.1866 26.4653V16.9917C43.1866 16.7314 43.0832 16.4817 42.8991 16.2977C42.715 16.1136 42.4654 16.0102 42.2051 16.0102H42.1894L40.1095 10.7866C40.0865 10.743 40.0596 10.7016 40.0291 10.6629C39.9782 10.4343 39.8463 10.2319 39.6577 10.0929C39.4692 9.95402 39.2368 9.88802 39.0034 9.90713C38.0288 9.99598 37.0476 9.83976 36.1488 9.45269C35.25 9.06562 34.4623 8.45998 33.8573 7.69087C33.7094 7.50831 33.5003 7.38548 33.2688 7.34506C33.0374 7.30465 32.7991 7.34939 32.598 7.47101C32.5514 7.47656 32.5052 7.48509 32.4596 7.49653L12.3955 15.486C12.2753 15.5331 12.1658 15.6038 12.0732 15.6938C11.9807 15.7838 11.9071 15.8913 11.8567 16.0102H5.76345L39.0289 2.76466L47.7438 24.6475L43.1866 26.4653Z" fill="#152A56"/>
<path d="M4.62658 34.9031C5.5645 35.1804 6.41825 35.6876 7.11025 36.3787C7.80225 37.0699 8.31055 37.923 8.58895 38.8606C8.64938 39.063 8.77352 39.2406 8.94293 39.3669C9.11233 39.4931 9.31796 39.5613 9.52924 39.5614C9.58017 39.5582 9.63074 39.5506 9.68039 39.5388C9.72444 39.5513 9.76947 39.5605 9.81486 39.5663H33.3712C33.4117 39.561 33.4517 39.5528 33.4909 39.5418C33.7264 39.599 33.975 39.5604 34.182 39.4344C34.389 39.3084 34.5376 39.1054 34.5949 38.8699L34.5961 38.8645C34.8738 37.926 35.3817 37.0719 36.0738 36.3798C36.7658 35.6878 37.62 35.1798 38.5585 34.9021C38.7821 34.8337 38.9735 34.6868 39.0972 34.4883C39.221 34.2899 39.2688 34.0534 39.2318 33.8225C39.2449 33.7748 39.2544 33.7263 39.2603 33.6772V25.8251C39.2545 25.776 39.2447 25.7274 39.2308 25.6799C39.268 25.4489 39.2204 25.2123 39.0966 25.0138C38.9728 24.8153 38.7813 24.6684 38.5575 24.6002C37.619 24.3226 36.7649 23.8145 36.0732 23.1223C35.3814 22.43 34.874 21.5755 34.5971 20.6368C34.5284 20.4118 34.3802 20.2193 34.1801 20.0955C33.98 19.9716 33.7417 19.9247 33.5096 19.9635C33.4642 19.9509 33.4179 19.9417 33.3712 19.936H9.81486C9.7654 19.9419 9.71649 19.9518 9.66862 19.9655C9.43772 19.9287 9.2013 19.9766 9.00291 20.1003C8.80452 20.224 8.65751 20.4153 8.58895 20.6388C8.31114 21.5771 7.8031 22.431 7.11106 23.1229C6.41902 23.8148 5.56496 24.3226 4.62658 24.6002C4.40295 24.6686 4.2116 24.8156 4.08785 25.014C3.9641 25.2124 3.9163 25.4489 3.95326 25.6799C3.9405 25.7275 3.93131 25.7761 3.92578 25.8251V33.6772C3.93142 33.7234 3.94063 33.769 3.95326 33.8137C3.91434 34.046 3.96117 34.2846 4.08503 34.485C4.20889 34.6854 4.40135 34.834 4.62658 34.9031ZM5.88881 26.2236C6.86414 25.8319 7.7501 25.2468 8.49332 24.5036C9.23653 23.7604 9.82162 22.8744 10.2134 21.8991H32.9717C33.3636 22.8744 33.9489 23.7604 34.6923 24.5036C35.4357 25.2468 36.3218 25.8319 37.2972 26.2236V33.2787C36.3222 33.6709 35.4364 34.2562 34.6933 34.9993C33.9501 35.7425 33.3649 36.6282 32.9727 37.6033H10.2134C9.82118 36.6282 9.23592 35.7425 8.49276 34.9993C7.74961 34.2562 6.86388 33.6709 5.88881 33.2787V26.2236Z" fill="#152A56"/>
<path d="M21.5931 35.6405C24.8456 35.6405 27.4822 33.0039 27.4822 29.7514C27.4822 26.4989 24.8456 23.8623 21.5931 23.8623C18.3406 23.8623 15.7041 26.4989 15.7041 29.7514C15.7072 33.0025 18.342 35.6373 21.5931 35.6405ZM21.5931 25.8253C23.7614 25.8253 25.5192 27.5831 25.5192 29.7514C25.5192 31.9197 23.7614 33.6774 21.5931 33.6774C19.4248 33.6774 17.6671 31.9197 17.6671 29.7514C17.6671 27.5831 19.4248 25.8253 21.5931 25.8253ZM10.7965 31.2237C11.6095 31.2237 12.2688 30.5644 12.2688 29.7514C12.2688 28.9383 11.6095 28.2791 10.7965 28.2791C9.98343 28.2791 9.32422 28.9383 9.32422 29.7514C9.32422 30.5646 9.98343 31.2237 10.7965 31.2237ZM10.7965 29.2606C10.9266 29.2606 11.0515 29.3123 11.1435 29.4044C11.2355 29.4964 11.2872 29.6212 11.2872 29.7514C11.2872 29.8815 11.2355 30.0064 11.1435 30.0984C11.0515 30.1904 10.9266 30.2421 10.7965 30.2421C10.6663 30.2421 10.5415 30.1904 10.4495 30.0984C10.3574 30.0064 10.3057 29.8815 10.3057 29.7514C10.3057 29.6212 10.3574 29.4964 10.4495 29.4044C10.5415 29.3123 10.6663 29.2606 10.7965 29.2606ZM32.3898 31.2237C33.2028 31.2237 33.862 30.5644 33.862 29.7514C33.862 28.9383 33.2028 28.2791 32.3898 28.2791C31.5767 28.2791 30.9175 28.9383 30.9175 29.7514C30.9175 30.5646 31.5767 31.2237 32.3898 31.2237ZM32.3898 29.2606C32.5199 29.2606 32.6448 29.3123 32.7368 29.4044C32.8288 29.4964 32.8805 29.6212 32.8805 29.7514C32.8805 29.8815 32.8288 30.0064 32.7368 30.0984C32.6448 30.1904 32.5199 30.2421 32.3898 30.2421C32.2596 30.2421 32.1348 30.1904 32.0428 30.0984C31.9507 30.0064 31.899 29.8815 31.899 29.7514C31.899 29.6212 31.9507 29.4964 32.0428 29.4044C32.1348 29.3123 32.2596 29.2606 32.3898 29.2606Z" fill="#152A56"/>
</svg>
